<?xml version="1.0" encoding="utf-8" ?>
<svg baseProfile="tiny" height="100%" version="1.2" width="100%" xmlns="http://www.w3.org/2000/svg" xmlns:ev="http://www.w3.org/2001/xml-events" xmlns:xlink="http://www.w3.org/1999/xlink"><defs /><polyline fill="none" points="64.0,99.998 63.0,99.998 62.002,99.0 62.0,98.998 61.002,98.0 61.002,97.0 61.002,96.0 61.002,95.0 61.002,94.0 61.002,93.0 61.002,92.0 61.002,91.0 61.002,90.0 61.002,89.0 61.002,88.0 61.002,87.0 61.002,86.0 61.002,85.0 61.002,84.0 61.002,83.0 61.002,82.0 61.002,81.0 61.002,80.0 61.0,79.998 60.002,79.0 60.0,78.998 59.002,78.0 59.0,77.998 58.002,77.0 58.0,76.998 57.002,76.0 57.0,75.998 56.002,75.0 56.0,74.998 55.002,74.0 55.0,73.998 54.002,73.0 54.0,72.998 53.002,72.0 53.0,71.998 52.002,71.0 52.0,70.998 51.002,70.0 51.0,69.998 50.002,69.0 50.0,68.998 49.002,68.0 49.0,67.998 48.002,67.0 48.0,66.998 47.002,66.0 47.0,65.998 46.002,65.0 46.0,64.998 45.998,65.0 45.0,65.998 44.0,65.998 43.002,65.0 43.0,64.998 42.0,64.998 41.0,64.998 40.002,64.0 40.0,63.998 39.002,63.0 39.002,62.0 39.0,61.998 38.002,61.0 38.002,60.0 38.0,59.998 37.002,59.0 37.002,58.0 38.0,57.002 38.002,57.0 38.002,56.0 39.0,55.002 39.002,55.0 39.002,54.0 40.0,53.002 41.0,53.002 41.002,53.0 42.0,52.002 42.002,52.0 43.0,51.002 44.0,51.002 45.0,51.002 46.0,51.002 46.998,52.0 47.0,52.002 48.0,52.002 48.998,53.0 49.0,53.002 49.998,54.0 50.0,54.002 50.998,55.0 50.998,56.0 50.998,57.0 51.0,57.002 51.998,58.0 51.998,59.0 51.0,59.998 50.998,60.0 50.998,61.0 50.998,62.0 50.998,63.0 51.0,63.002 51.998,64.0 52.0,64.002 52.998,65.0 53.0,65.002 53.998,66.0 54.0,66.002 54.998,67.0 55.0,67.002 55.998,68.0 56.0,68.002 56.998,69.0 57.0,69.002 57.998,70.0 58.0,70.002 58.998,71.0 59.0,71.002 59.998,72.0 60.0,72.002 60.998,73.0 61.0,73.002 61.002,73.0 61.002,72.0 61.002,71.0 61.002,70.0 61.002,69.0 61.002,68.0 61.002,67.0 61.002,66.0 61.002,65.0 61.002,64.0 61.002,63.0 61.002,62.0 61.002,61.0 61.002,60.0 61.002,59.0 61.002,58.0 61.002,57.0 61.002,56.0 61.002,55.0 61.002,54.0 61.002,53.0 61.002,52.0 61.002,51.0 61.002,50.0 61.002,49.0 61.002,48.0 61.002,47.0 61.002,46.0 61.002,45.0 61.0,44.998 60.002,44.0 60.0,43.998 59.0,43.998 58.002,43.0 58.0,42.998 57.002,42.0 57.0,41.998 56.002,41.0 56.002,40.0 56.0,39.998 55.002,39.0 55.002,38.0 55.002,37.0 55.002,36.0 55.002,35.0 55.002,34.0 55.002,33.0 56.0,32.002 56.002,32.0 57.0,31.002 57.002,31.0 58.0,30.002 58.002,30.0 59.0,29.002 59.002,29.0 60.0,28.002 60.002,28.0 61.0,27.002 62.0,27.002 63.0,27.002 64.0,27.002 65.0,27.002 66.0,27.002 66.998,28.0 67.0,28.002 68.0,28.002 68.998,29.0 69.0,29.002 69.998,30.0 70.0,30.002 70.998,31.0 71.0,31.002 71.998,32.0 71.998,33.0 71.998,34.0 71.998,35.0 71.998,36.0 71.998,37.0 71.998,38.0 71.998,39.0 71.0,39.998 70.998,40.0 70.998,41.0 70.0,41.998 69.998,42.0 69.0,42.998 68.998,43.0 68.0,43.998 67.0,43.998 66.998,44.0 66.0,44.998 65.998,45.0 65.998,46.0 65.998,47.0 65.998,48.0 65.998,49.0 65.998,50.0 65.998,51.0 65.998,52.0 65.998,53.0 65.998,54.0 65.998,55.0 65.998,56.0 65.998,57.0 65.998,58.0 65.998,59.0 65.998,60.0 65.998,61.0 65.998,62.0 65.998,63.0 65.998,64.0 65.998,65.0 65.998,66.0 65.998,67.0 65.998,68.0 65.998,69.0 65.998,70.0 65.998,71.0 65.998,72.0 65.998,73.0 65.998,74.0 65.998,75.0 65.998,76.0 65.998,77.0 65.998,78.0 65.998,79.0 65.998,80.0 65.998,81.0 65.998,82.0 65.998,83.0 65.998,84.0 65.998,85.0 65.998,86.0 65.998,87.0 65.998,88.0 65.998,89.0 65.998,90.0 65.998,91.0 65.998,92.0 65.998,93.0 65.998,94.0 65.998,95.0 65.998,96.0 65.998,97.0 65.998,98.0 65.0,98.998 64.998,99.0 64.0,99.998" stroke="goldenrod" stroke-width="2" /><polyline fill="none" points="65.002,41.0 66.0,40.002 66.002,40.0 67.0,39.002 67.002,39.0 68.0,38.002 68.002,38.0 68.002,37.0 68.002,36.0 68.002,35.0 68.002,34.0 68.0,33.998 67.002,33.0 67.0,32.998 66.002,32.0 66.0,31.998 65.0,31.998 64.002,31.0 64.0,30.998 63.0,30.998 62.998,31.0 62.0,31.998 61.0,31.998 60.998,32.0 60.0,32.998 59.998,33.0 59.0,33.998 58.998,34.0 58.998,35.0 58.998,36.0 58.998,37.0 59.0,37.002 59.998,38.0 59.998,39.0 60.0,39.002 60.998,40.0 61.0,40.002 62.0,40.002 63.0,40.002 63.998,41.0 64.0,41.002 65.0,41.002 65.002,41.0" stroke="goldenrod" stroke-width="2" /><polyline fill="none" points="46.002,61.0 47.0,60.002 47.002,60.0 47.002,59.0 47.002,58.0 47.002,57.0 47.0,56.998 46.002,56.0 46.0,55.998 45.0,55.998 44.0,55.998 43.0,55.998 42.998,56.0 42.0,56.998 41.998,57.0 41.998,58.0 41.998,59.0 42.0,59.002 42.998,60.0 43.0,60.002 43.998,61.0 44.0,61.002 45.0,61.002 46.0,61.002 46.002,61.0" stroke="goldenrod" stroke-width="2" /><polyline fill="none" points="72.0,88.998 71.0,88.998 70.0,88.998 69.002,88.0 69.0,87.998 68.002,87.0 68.002,86.0 68.002,85.0 68.002,84.0 68.002,83.0 68.002,82.0 68.002,81.0 68.002,80.0 68.002,79.0 68.002,78.0 68.002,77.0 68.002,76.0 69.0,75.002 69.002,75.0 70.0,74.002 70.002,74.0 71.0,73.002 71.002,73.0 72.0,72.002 72.002,72.0 73.0,71.002 73.002,71.0 74.0,70.002 74.002,70.0 75.0,69.002 75.002,69.0 75.002,68.0 75.002,67.0 75.002,66.0 75.002,65.0 75.0,64.998 74.002,64.0 74.002,63.0 75.0,62.002 75.002,62.0 75.002,61.0 76.0,60.002 76.002,60.0 77.0,59.002 77.002,59.0 78.0,58.002 78.002,58.0 79.0,57.002 80.0,57.002 80.002,57.0 81.0,56.002 82.0,56.002 82.998,57.0 83.0,57.002 84.0,57.002 85.0,57.002 85.998,58.0 86.0,58.002 86.998,59.0 86.998,60.0 87.0,60.002 87.998,61.0 87.998,62.0 87.998,63.0 87.998,64.0 87.998,65.0 87.998,66.0 87.0,66.998 86.998,67.0 86.998,68.0 86.0,68.998 85.0,68.998 84.998,69.0 84.0,69.998 83.0,69.998 82.998,70.0 82.0,70.998 81.0,70.998 80.0,70.998 79.0,70.998 78.998,71.0 78.0,71.998 77.998,72.0 77.0,72.998 76.998,73.0 76.0,73.998 75.998,74.0 75.0,74.998 74.998,75.0 74.0,75.998 73.998,76.0 73.0,76.998 72.998,77.0 72.998,78.0 72.998,79.0 72.998,80.0 72.998,81.0 72.998,82.0 72.998,83.0 72.998,84.0 72.998,85.0 72.998,86.0 72.998,87.0 72.998,88.0 72.0,88.998" stroke="goldenrod" stroke-width="2" /><polyline fill="none" points="83.002,66.0 84.0,65.002 84.002,65.0 84.002,64.0 84.002,63.0 84.0,62.998 83.002,62.0 83.0,61.998 82.002,61.0 82.0,60.998 81.0,60.998 80.0,60.998 79.998,61.0 79.0,61.998 78.998,62.0 78.998,63.0 78.998,64.0 79.0,64.002 79.998,65.0 80.0,65.002 80.998,66.0 81.0,66.002 82.0,66.002 83.0,66.002 83.002,66.0" stroke="goldenrod" stroke-width="2" /><polyline fill="none" points="55.0,84.998 54.0,84.998 53.0,84.998 52.002,84.0 52.0,83.998 51.002,83.0 51.0,82.998 50.002,82.0 50.0,81.998 49.002,81.0 49.0,80.998 48.002,80.0 48.0,79.998 47.002,79.0 47.0,78.998 46.002,78.0 46.002,77.0 46.002,76.0 47.0,75.002 48.0,75.002 49.0,75.002 49.998,76.0 50.0,76.002 50.998,77.0 51.0,77.002 51.998,78.0 52.0,78.002 52.998,79.0 53.0,79.002 53.998,80.0 54.0,80.002 54.998,81.0 55.0,81.002 55.998,82.0 55.998,83.0 55.998,84.0 55.0,84.998" stroke="goldenrod" stroke-width="2" /></svg>